<?xml version="1.0" encoding="UTF-8" standalone="no"?>
<svg
   xmlns:dc="http://purl.org/dc/elements/1.1/"
   xmlns:cc="http://creativecommons.org/ns#"
   xmlns:rdf="http://www.w3.org/1999/02/22-rdf-syntax-ns#"
   xmlns:svg="http://www.w3.org/2000/svg"
   xmlns="http://www.w3.org/2000/svg"
   xmlns:sodipodi="http://sodipodi.sourceforge.net/DTD/sodipodi-0.dtd"
   xmlns:inkscape="http://www.inkscape.org/namespaces/inkscape"
   width="222.25mm"
   height="222.25mm"
   viewBox="0 0 222.25 222.25"
   version="1.1"
   id="svg8"
   inkscape:version="1.0 (4035a4f, 2020-05-01)"
   sodipodi:docname="noughpad_light.svg">
  <defs
     id="defs2" />
  <sodipodi:namedview
     id="base"
     pagecolor="#ffffff"
     bordercolor="#666666"
     borderopacity="1.0"
     inkscape:pageopacity="0.0"
     inkscape:pageshadow="2"
     inkscape:zoom="0.22020718"
     inkscape:cx="760.70156"
     inkscape:cy="879.97791"
     inkscape:document-units="mm"
     inkscape:current-layer="layer1"
     inkscape:document-rotation="0"
     showgrid="false"
     inkscape:window-width="1440"
     inkscape:window-height="773"
     inkscape:window-x="0"
     inkscape:window-y="23"
     inkscape:window-maximized="0" />
  <metadata
     id="metadata5">
    <rdf:RDF>
      <cc:Work
         rdf:about="">
        <dc:format>image/svg+xml</dc:format>
        <dc:type
           rdf:resource="http://purl.org/dc/dcmitype/StillImage" />
        <dc:title />
      </cc:Work>
    </rdf:RDF>
  </metadata>
  <g
     inkscape:label="Layer 1"
     inkscape:groupmode="layer"
     id="layer1"
     transform="translate(-18.674165,303.49323)">
    <path
       d="m 18.674165,-109.90046 c 0,15.828369 12.830597,28.657229 28.657227,28.657229 H 212.26607 c 15.82923,0 28.65809,-12.830596 28.65809,-28.657229 v -164.93467 c 0,-15.82924 -12.83059,-28.6581 -28.65722,-28.6581 H 47.332261 c -15.829236,0 -28.658096,12.8306 -28.658096,28.65723 v 164.93467 z"
       fill="#563d7c"
       id="path833"
       style="stroke-width:0.868164;fill:#ffffff" />
    <g
       id="g908"
       transform="translate(258.63904,0.87426531)">
      <path
         style="fill:#333a41;fill-opacity:1;stroke-width:0.293951"
         id="path849"
         fill-rule="evenodd"
         fill="#8481e2"
         d="m -78.862723,-193.79498 c 0,11.16751 -0.8845,21.22916 -2.690536,30.22201 -1.806038,8.99286 -4.754369,16.6591 -8.808545,22.99816 -4.090923,6.33936 -9.36146,11.20425 -15.885126,14.55823 -6.52366,3.39073 -14.52149,5.08625 -23.95673,5.08625 -9.58252,0 -17.50686,-1.62173 -23.77243,-4.90194 -6.26557,-3.2802 -11.24128,-7.99782 -14.8901,-14.15287 -3.68557,-6.15504 -6.26558,-13.67373 -7.73974,-22.55606 -1.47416,-8.88232 -2.2114,-18.94427 -2.2114,-30.14852 0,-11.09373 0.92154,-21.15567 2.76433,-30.18527 1.84277,-9.02989 4.79111,-16.69584 8.84557,-23.0352 4.09093,-6.33935 9.36148,-11.20424 15.88513,-14.55823 6.52366,-3.39072 14.48445,-5.08623 23.84592,-5.08623 9.58251,0 17.50686,1.62173 23.80916,4.90193 6.30232,3.2802 11.314784,7.99783 14.963595,14.15287 3.685855,6.15504 6.228828,13.67373 7.666249,22.55606 1.437422,8.88261 2.174653,18.94427 2.174653,30.14881 z m -28.526797,1.47417 c 0,-6.63419 -0.18431,-12.45737 -0.55292,-17.50656 -0.36861,-5.08624 -0.92153,-9.472 -1.65848,-13.23134 -0.77397,-3.72231 -1.73225,-6.89198 -2.83809,-9.47199 -1.10585,-2.57972 -2.46949,-4.68059 -4.09122,-6.19179 -1.58499,-1.54795 -3.39073,-2.6538 -5.41782,-3.31695 -2.02709,-0.6267 -4.27552,-0.95828 -6.7447,-0.95828 -4.23849,0 -7.77678,1.03177 -10.57784,3.05915 -2.80106,2.06384 -4.97571,5.12299 -6.63419,9.25094 -1.62143,4.09093 -2.76431,9.17716 -3.39073,15.29517 -0.66345,6.1183 -0.99502,13.23163 -0.99502,21.33998 0,9.91439 0.40535,18.13327 1.17933,24.61989 0.81072,6.52366 2.06384,11.68339 3.75935,15.55325 1.69551,3.83313 3.9069,6.52366 6.5604,8.07161 2.69024,1.54795 5.89696,2.32192 9.69304,2.32192 2.80106,0 5.30729,-0.44239 7.48194,-1.36363 2.17466,-0.88451 4.05419,-2.24814 5.71266,-4.01744 1.62173,-1.80603 2.98536,-4.05417 4.05417,-6.81849 1.10584,-2.72728 1.99034,-5.89696 2.6535,-9.47199 0.70018,-3.61179 1.17933,-7.66596 1.43742,-12.19928 0.25867,-4.49686 0.3692,-9.50932 0.3692,-14.96417 z"
         clip-rule="evenodd" />
      <g
         style="fill:#000000;fill-opacity:1"
         transform="matrix(0.29395127,0,0,0.29395127,-204.09126,-268.49358)"
         id="g857">
        <path
           style="fill:#000000;fill-opacity:1"
           id="path851"
           d="M 428.492,149.959 C 423.407,118.53 414.197,91.522 401.143,69.723 387.861,47.318 369.393,29.85 346.252,17.804 323.552,5.99 294.747,0 260.638,0 227.275,0 198.43,6.2 174.943,18.409 151.44,30.492 131.97,48.323 117.052,71.44 102.646,93.963 92.06,121.469 85.586,153.192 c -6.374,31.233 -9.605,66.455 -9.605,104.688 0,38.527 2.577,73.586 7.658,104.2 5.198,31.317 14.489,58.312 27.593,80.195 13.297,22.43 31.673,39.894 54.618,51.906 22.582,11.822 51.352,17.816 85.51,17.816 33.611,0 62.583,-6.2 86.071,-18.409 23.502,-12.083 42.973,-29.913 57.892,-53.031 14.458,-22.607 25.005,-50.081 31.346,-81.658 6.203,-30.888 9.349,-66.141 9.349,-104.781 0,-38.254 -2.532,-73.299 -7.526,-104.159 z m -21.431,205.004 c -5.852,29.137 -15.469,54.31 -28.564,74.785 -12.972,20.101 -29.865,35.596 -50.249,46.075 -20.65,10.733 -46.519,16.176 -76.887,16.176 -30.895,0 -56.544,-5.227 -76.234,-15.535 -19.606,-10.265 -35.315,-25.198 -46.713,-44.425 -11.833,-19.761 -20.259,-44.399 -25.044,-73.233 -4.902,-29.535 -7.388,-63.491 -7.388,-100.925 0,-36.893 3.096,-70.77 9.202,-100.689 5.98,-29.305 15.642,-54.53 28.696,-74.94 12.971,-20.1 29.864,-35.595 50.249,-46.075 C 204.777,25.442 230.519,20 260.638,20 c 30.862,0 56.56,5.23 76.38,15.545 19.782,10.297 35.568,25.228 46.943,44.415 11.769,19.653 20.109,44.279 24.788,73.194 4.823,29.807 7.269,63.776 7.269,100.965 0,37.32 -3.014,71.249 -8.957,100.844 z" />
        <path
           style="fill:#000000;fill-opacity:1"
           id="path853"
           d="m 331.262,152.642 c -0.007,-0.037 -0.015,-0.075 -0.022,-0.112 -2.734,-13.148 -6.184,-24.63 -10.254,-34.127 -4.365,-10.184 -9.816,-18.379 -16.205,-24.36 -6.453,-6.278 -13.93,-10.838 -22.225,-13.553 -0.053,-0.018 -0.105,-0.034 -0.158,-0.051 -7.957,-2.458 -16.67,-3.705 -25.897,-3.705 -16.484,0 -30.564,4.14 -41.918,12.355 -11.025,8.125 -19.502,19.834 -25.932,35.838 -5.892,14.863 -9.992,33.267 -12.181,54.64 -0.948,8.742 -1.71,18.206 -2.267,28.13 -0.309,5.515 3.911,10.235 9.425,10.544 5.52,0.3 10.234,-3.911 10.544,-9.425 0.537,-9.579 1.271,-18.694 2.188,-27.152 2.007,-19.604 5.669,-36.213 10.866,-49.323 4.987,-12.413 11.274,-21.294 19.151,-27.099 7.802,-5.646 17.937,-8.508 30.123,-8.508 7.191,0 13.889,0.938 19.911,2.789 5.439,1.793 10.176,4.708 14.478,8.909 0.056,0.055 0.112,0.108 0.169,0.161 4.378,4.081 8.262,10.032 11.544,17.688 3.54,8.26 6.583,18.442 9.044,30.264 2.422,12.373 4.263,27.094 5.471,43.76 1.23,16.858 1.854,36.651 1.854,58.829 0,19.36 -0.405,35.824 -1.238,50.337 -0.845,14.843 -2.434,28.357 -4.737,40.245 -2.139,11.521 -4.986,21.713 -8.463,30.291 -0.02,0.05 -0.04,0.101 -0.06,0.15 -3.077,7.957 -7.058,14.7 -11.835,20.043 -4.845,5.149 -10.024,8.801 -15.832,11.163 -0.045,0.018 -0.09,0.036 -0.135,0.056 -6.022,2.553 -13.272,3.847 -21.55,3.847 -11.153,0 -20.308,-2.148 -27.937,-6.537 -7.241,-4.225 -13.369,-11.918 -18.197,-22.833 -5.368,-12.252 -9.413,-29.118 -12.019,-50.083 -1.33,-11.148 -2.337,-23.95 -2.994,-38.049 -0.257,-5.517 -4.934,-9.781 -10.454,-9.524 -5.517,0.257 -9.781,4.938 -9.524,10.454 0.679,14.578 1.726,27.864 3.119,39.537 2.891,23.255 7.324,41.471 13.568,55.724 6.581,14.877 15.471,25.66 26.476,32.08 10.646,6.126 23.419,9.231 37.963,9.231 10.944,0 20.797,-1.818 29.286,-5.403 8.424,-3.438 16.127,-8.842 22.897,-16.063 0.049,-0.053 0.098,-0.105 0.146,-0.159 6.418,-7.148 11.683,-15.962 15.649,-26.195 3.967,-9.806 7.185,-21.271 9.547,-34.001 2.459,-12.688 4.16,-27.102 5.055,-42.832 0.855,-14.894 1.271,-31.732 1.271,-51.479 0,-22.661 -0.642,-42.943 -1.907,-60.279 -1.286,-17.737 -3.184,-32.853 -5.804,-46.213 z" />
        <path
           style="fill:#000000;fill-opacity:1"
           id="path855"
           d="m 183.027,263.241 c 5.523,0 10,-4.478 10,-10 0,-5.522 -4.477,-10 -10,-10 h -0.007 c -5.523,0 -9.996,4.478 -9.996,10 0,5.522 4.48,10 10.003,10 z" />
      </g>
    </g>
  </g>
</svg>
